<?xml version="1.0" encoding="UTF-8"?>
<!DOCTYPE svg PUBLIC "-//W3C//DTD SVG 1.1//EN" "http://www.w3.org/Graphics/SVG/1.1/DTD/svg11.dtd">
<!-- Creator: CorelDRAW -->
<svg xmlns="http://www.w3.org/2000/svg" xml:space="preserve" width="85.7484mm" height="16.9333mm" version="1.1" style="shape-rendering:geometricPrecision; text-rendering:geometricPrecision; image-rendering:optimizeQuality; fill-rule:evenodd; clip-rule:evenodd"
viewBox="0 0 140.38 27.72"
 xmlns:xlink="http://www.w3.org/1999/xlink"
 xmlns:xodm="http://www.corel.com/coreldraw/odm/2003">
 <defs>
  <style type="text/css">
   <![CDATA[
    .fil1 {fill:#D9643A}
    .fil0 {fill:#D9C9B6}
    .fil2 {fill:#473A35;fill-rule:nonzero}
   ]]>
  </style>
 </defs>
 <g id="Layer_x0020_1">
  <metadata id="CorelCorpID_0Corel-Layer"/>
  <g id="_2752889323648">
   <path class="fil0" d="M10.08 17.64c0.79,1.76 2.12,3.23 3.78,4.2 0,0 0,0 0,0 1.36,0.8 2.95,1.25 4.64,1.25 1.35,0 2.63,-0.29 3.78,-0.81l0 0c3.13,-1.41 5.34,-4.52 5.44,-8.15 0,-0.09 0,-0.18 0,-0.27 0,-0.09 -0,-0.18 -0,-0.27 -0.1,-3.63 -2.31,-6.74 -5.44,-8.15 0.52,1.15 0.81,2.43 0.81,3.78 0,1.69 -0.46,3.27 -1.25,4.64l0 0c-0.97,1.66 -2.43,2.98 -4.19,3.78l-0 0c-1.15,0.52 -2.43,0.81 -3.78,0.81 -1.35,0 -2.63,-0.29 -3.78,-0.81z"/>
   <path class="fil0" d="M-0 13.86c0,0.09 0,0.18 0,0.27 0.1,3.63 2.31,6.74 5.44,8.15 -0.52,-1.15 -0.81,-2.43 -0.81,-3.78 0,-1.69 0.45,-3.27 1.25,-4.64l0 -0c0.97,-1.66 2.43,-2.99 4.19,-3.78 1.15,-0.52 2.43,-0.81 3.78,-0.81 1.35,0 2.63,0.29 3.78,0.81 -0.79,-1.76 -2.12,-3.23 -3.78,-4.19l-0 0c-1.36,-0.8 -2.95,-1.25 -4.64,-1.25 -1.35,0 -2.63,0.29 -3.78,0.81 -3.13,1.41 -5.34,4.52 -5.44,8.15 -0,0.09 -0,0.18 -0,0.27z"/>
   <path class="fil1" d="M5.44 5.45c1.15,-0.52 2.43,-0.81 3.78,-0.81 1.69,0 3.27,0.46 4.64,1.25l0 0c1.66,0.97 2.98,2.43 3.78,4.19 0.52,1.15 0.81,2.43 0.81,3.78 0,1.35 -0.29,2.62 -0.81,3.78 1.76,-0.79 3.23,-2.12 4.19,-3.78l0 -0c0.8,-1.36 1.25,-2.95 1.25,-4.64 0,-1.35 -0.29,-2.62 -0.81,-3.78 -1.41,-3.13 -4.52,-5.34 -8.15,-5.44 -0.09,-0 -0.18,-0 -0.27,-0 -0.09,0 -0.18,0 -0.27,0 -3.63,0.1 -6.74,2.31 -8.15,5.44z"/>
   <path class="fil1" d="M4.64 18.5c0,1.35 0.29,2.62 0.81,3.78 1.41,3.13 4.52,5.34 8.15,5.44 0.09,0 0.18,0 0.27,0 0.09,0 0.18,-0 0.27,-0 3.63,-0.1 6.74,-2.31 8.15,-5.44 -1.15,0.52 -2.43,0.81 -3.78,0.81 -1.69,0 -3.27,-0.46 -4.64,-1.25 0,0 0,0 -0,0 -1.66,-0.97 -2.99,-2.43 -3.78,-4.2 -0.52,-1.15 -0.81,-2.43 -0.81,-3.78 0,-1.35 0.29,-2.63 0.81,-3.78 -1.76,0.79 -3.23,2.12 -4.19,3.78l0 0c-0.8,1.36 -1.25,2.95 -1.25,4.64z"/>
  </g>
  <g id="_2752889328256">
   <path class="fil2" d="M46.01 5.51c0.22,0 0.45,0.01 0.69,0.02 0.23,0.01 0.47,0.03 0.72,0.05 0.25,0.02 0.49,0.05 0.71,0.08 0.23,0.03 0.46,0.07 0.68,0.12 0.22,0.05 0.42,0.1 0.61,0.16 0.19,0.06 0.36,0.12 0.51,0.19 0.08,0.03 0.14,0.06 0.2,0.09 0.07,0.05 0.12,0.1 0.16,0.17 0.03,0.05 0.05,0.12 0.07,0.19 0.01,0.06 0.03,0.14 0.03,0.24l0.29 3.11c0,0.09 -0.04,0.16 -0.11,0.22 -0.04,0.04 -0.1,0.06 -0.17,0.08 -0.08,0.02 -0.15,0.01 -0.22,-0.02 -0.07,-0.03 -0.13,-0.09 -0.17,-0.16l-0.01 -0.02c-0.2,-0.59 -0.45,-1.11 -0.73,-1.56 -0.28,-0.45 -0.61,-0.83 -0.97,-1.14 -0.72,-0.62 -1.61,-0.93 -2.65,-0.93 -0.48,0 -0.94,0.06 -1.37,0.19 -0.43,0.13 -0.83,0.32 -1.21,0.58 -0.76,0.52 -1.36,1.26 -1.79,2.22 -0.22,0.48 -0.38,1.01 -0.49,1.59 -0.11,0.58 -0.17,1.21 -0.17,1.89 0,0.51 0.03,1 0.1,1.46 0.06,0.46 0.16,0.89 0.29,1.3 0.13,0.41 0.29,0.79 0.47,1.13 0.18,0.35 0.39,0.66 0.63,0.95 0.23,0.29 0.49,0.54 0.77,0.76 0.28,0.22 0.57,0.4 0.89,0.56 0.32,0.15 0.65,0.27 1,0.34 0.35,0.08 0.72,0.12 1.1,0.12 0.5,0 0.96,-0.07 1.37,-0.2 0.41,-0.13 0.78,-0.34 1.1,-0.61 0.33,-0.27 0.65,-0.63 0.96,-1.07 0.32,-0.45 0.62,-0.98 0.92,-1.59l0.01 -0.02c0.04,-0.06 0.1,-0.11 0.17,-0.13 0.06,-0.02 0.13,-0.02 0.19,-0 0.18,0.04 0.26,0.14 0.26,0.29 0,0.7 -0.24,2.03 -0.33,2.78 -0.01,0.1 -0.02,0.18 -0.04,0.25 -0.02,0.08 -0.05,0.15 -0.08,0.2 -0.03,0.05 -0.08,0.09 -0.15,0.13 -0.05,0.03 -0.11,0.07 -0.19,0.1l-0.02 0.01c-0.36,0.13 -0.72,0.24 -1.08,0.33 -0.36,0.09 -0.72,0.17 -1.08,0.23 -0.35,0.06 -0.7,0.1 -1.05,0.14 -0.35,0.03 -0.68,0.05 -1,0.05 -0.81,0 -1.58,-0.08 -2.31,-0.23 -0.73,-0.15 -1.41,-0.39 -2.04,-0.69 -0.64,-0.31 -1.21,-0.68 -1.71,-1.11 -0.5,-0.43 -0.94,-0.93 -1.3,-1.48 -0.37,-0.56 -0.64,-1.15 -0.83,-1.79 -0.18,-0.64 -0.27,-1.31 -0.27,-2.03 0,-0.55 0.05,-1.08 0.16,-1.58 0.11,-0.51 0.27,-0.99 0.49,-1.46 0.22,-0.46 0.48,-0.89 0.78,-1.29 0.31,-0.4 0.65,-0.76 1.05,-1.1 0.39,-0.33 0.82,-0.63 1.27,-0.88 0.45,-0.26 0.94,-0.48 1.47,-0.66 0.52,-0.18 1.06,-0.32 1.63,-0.41 0.56,-0.09 1.15,-0.14 1.75,-0.14zm0.67 0.43c-0.22,-0.01 -0.44,-0.02 -0.67,-0.02 -0.58,0 -1.14,0.04 -1.68,0.13 -0.54,0.09 -1.06,0.22 -1.56,0.39 -0.5,0.17 -0.96,0.38 -1.4,0.63 -0.43,0.24 -0.84,0.52 -1.21,0.84 -0.37,0.31 -0.7,0.66 -0.98,1.03 -0.29,0.38 -0.53,0.78 -0.74,1.22 -0.2,0.43 -0.36,0.89 -0.46,1.37 -0.1,0.48 -0.15,0.98 -0.15,1.5 0,0.68 0.09,1.32 0.26,1.92 0.17,0.6 0.43,1.16 0.77,1.68 0.34,0.52 0.75,0.99 1.23,1.39 0.47,0.41 1.01,0.76 1.62,1.05 0.61,0.29 1.26,0.51 1.95,0.66 0.69,0.15 1.43,0.22 2.22,0.22 0.32,0 0.64,-0.01 0.96,-0.04 0.33,-0.03 0.66,-0.07 1.01,-0.13 0.34,-0.06 0.69,-0.13 1.04,-0.22 0.35,-0.09 0.69,-0.2 1.04,-0.32 0.05,-0.02 0.09,-0.05 0.12,-0.07l0.04 -0.03 0.01 -0.05c0.01,-0.05 0.02,-0.11 0.03,-0.19l0.28 -2.28c-0.24,0.46 -0.49,0.87 -0.75,1.23 -0.33,0.47 -0.68,0.85 -1.04,1.15 -0.36,0.3 -0.78,0.53 -1.24,0.68 -0.46,0.15 -0.96,0.23 -1.5,0.23 -0.41,0 -0.81,-0.04 -1.19,-0.12 -0.38,-0.08 -0.74,-0.21 -1.09,-0.38 -0.35,-0.17 -0.67,-0.37 -0.97,-0.61 -0.3,-0.24 -0.58,-0.51 -0.83,-0.82 -0.25,-0.31 -0.48,-0.65 -0.67,-1.02 -0.19,-0.37 -0.36,-0.77 -0.5,-1.2 -0.14,-0.43 -0.24,-0.89 -0.31,-1.37 -0.07,-0.48 -0.1,-0.99 -0.1,-1.51 0,-0.7 0.06,-1.36 0.17,-1.97 0.12,-0.61 0.29,-1.17 0.52,-1.69 0.47,-1.03 1.11,-1.83 1.94,-2.39 0.41,-0.28 0.86,-0.5 1.33,-0.64 0.47,-0.14 0.96,-0.21 1.49,-0.21 1.15,0 2.12,0.34 2.92,1.03 0.4,0.34 0.75,0.75 1.05,1.23 0.22,0.34 0.41,0.72 0.58,1.13l-0.23 -2.52c-0.01,-0.07 -0.02,-0.13 -0.03,-0.18 -0.01,-0.04 -0.02,-0.07 -0.03,-0.08l-0.02 -0.02c-0.03,-0.02 -0.07,-0.04 -0.11,-0.05l-0.02 -0.01c-0.14,-0.06 -0.3,-0.12 -0.47,-0.17 -0.17,-0.05 -0.37,-0.1 -0.57,-0.15 -0.21,-0.04 -0.43,-0.08 -0.65,-0.11 -0.23,-0.03 -0.46,-0.06 -0.69,-0.08 -0.23,-0.02 -0.47,-0.04 -0.7,-0.05zm10.22 14.45c-0.48,0 -0.94,-0.06 -1.36,-0.17 -0.42,-0.11 -0.81,-0.28 -1.17,-0.51 -0.36,-0.23 -0.67,-0.49 -0.95,-0.79 -0.27,-0.3 -0.51,-0.64 -0.7,-1.02 -0.19,-0.38 -0.34,-0.77 -0.43,-1.17 -0.1,-0.4 -0.14,-0.82 -0.14,-1.25 0,-0.81 0.16,-1.51 0.47,-2.1 0.16,-0.3 0.34,-0.57 0.54,-0.81 0.21,-0.24 0.44,-0.46 0.69,-0.65 0.25,-0.19 0.52,-0.35 0.8,-0.5 0.27,-0.14 0.56,-0.26 0.87,-0.35 0.3,-0.09 0.59,-0.16 0.89,-0.21 0.3,-0.05 0.59,-0.07 0.88,-0.07 0.49,0 0.95,0.06 1.37,0.18 0.43,0.12 0.82,0.29 1.17,0.53 0.35,0.23 0.66,0.5 0.93,0.8 0.27,0.3 0.5,0.63 0.68,1 0.18,0.36 0.32,0.74 0.42,1.13 0.09,0.39 0.14,0.79 0.14,1.2 0,0.95 -0.24,1.78 -0.71,2.51 -0.24,0.36 -0.51,0.68 -0.82,0.96 -0.31,0.28 -0.66,0.52 -1.05,0.72 -0.39,0.2 -0.79,0.35 -1.21,0.44 -0.42,0.1 -0.85,0.15 -1.31,0.15zm-1.25 -0.57c0.39,0.1 0.8,0.15 1.25,0.15 0.26,0 0.51,-0.02 0.76,-0.05l-0.09 0c-0.29,0 -0.56,-0.06 -0.83,-0.17 -0.26,-0.11 -0.51,-0.28 -0.74,-0.51 -0.45,-0.44 -0.81,-1.06 -1.07,-1.86 -0.13,-0.39 -0.23,-0.82 -0.29,-1.28 -0.06,-0.46 -0.1,-0.94 -0.1,-1.45 0,-0.55 0.04,-1.04 0.12,-1.45 0.08,-0.42 0.2,-0.78 0.37,-1.06 0.17,-0.29 0.38,-0.51 0.63,-0.66l0.09 -0.05 -0.12 0.04c-0.27,0.08 -0.54,0.19 -0.8,0.32 -0.26,0.13 -0.5,0.28 -0.73,0.46 -0.23,0.17 -0.44,0.37 -0.63,0.59 -0.19,0.22 -0.35,0.47 -0.49,0.73 -0.28,0.53 -0.42,1.17 -0.42,1.91 0,0.4 0.04,0.79 0.13,1.16 0.09,0.37 0.22,0.73 0.4,1.08 0.18,0.34 0.39,0.65 0.64,0.93 0.25,0.27 0.54,0.51 0.86,0.72 0.32,0.2 0.67,0.36 1.06,0.46zm1.63 -8.61c-0.24,0 -0.48,0.02 -0.72,0.05 0.25,0 0.5,0.06 0.74,0.16 0.25,0.1 0.49,0.25 0.72,0.45 0.46,0.39 0.83,0.97 1.11,1.73 0.14,0.38 0.25,0.8 0.32,1.27 0.07,0.46 0.11,0.97 0.11,1.52 0,0.54 -0.04,1.02 -0.12,1.44 -0.08,0.43 -0.2,0.8 -0.35,1.1 -0.16,0.32 -0.37,0.57 -0.63,0.73 -0.1,0.07 -0.21,0.12 -0.32,0.16 0.38,-0.09 0.75,-0.23 1.09,-0.4 0.35,-0.18 0.67,-0.4 0.96,-0.65 0.28,-0.26 0.53,-0.55 0.75,-0.88 0.43,-0.66 0.64,-1.42 0.64,-2.28 0,-0.38 -0.04,-0.75 -0.13,-1.1 -0.08,-0.35 -0.21,-0.7 -0.38,-1.03 -0.17,-0.33 -0.38,-0.64 -0.62,-0.91 -0.25,-0.27 -0.53,-0.52 -0.85,-0.73 -0.32,-0.21 -0.67,-0.37 -1.05,-0.47 -0.39,-0.11 -0.81,-0.16 -1.26,-0.16zm0.29 8.29c0.26,0 0.48,-0.06 0.66,-0.18 0.19,-0.12 0.35,-0.31 0.48,-0.57 0.14,-0.27 0.24,-0.6 0.31,-0.99 0.07,-0.39 0.11,-0.85 0.11,-1.37 0,-0.53 -0.03,-1.02 -0.1,-1.46 -0.07,-0.44 -0.17,-0.83 -0.3,-1.18 -0.26,-0.7 -0.59,-1.22 -0.99,-1.56 -0.2,-0.17 -0.4,-0.3 -0.6,-0.38 -0.2,-0.08 -0.4,-0.12 -0.61,-0.12 -0.25,0 -0.47,0.06 -0.66,0.17 -0.19,0.11 -0.35,0.28 -0.48,0.51 -0.14,0.24 -0.25,0.55 -0.32,0.92 -0.07,0.39 -0.11,0.85 -0.11,1.38 0,0.5 0.03,0.96 0.09,1.39 0.06,0.43 0.15,0.83 0.27,1.2 0.24,0.73 0.56,1.29 0.97,1.69 0.2,0.19 0.4,0.33 0.61,0.43 0.21,0.09 0.43,0.14 0.66,0.14zm17.31 0.6c-0.18,0 -0.28,-0.11 -0.28,-0.34 0,-0.08 0.01,-0.14 0.04,-0.19 0.05,-0.1 0.13,-0.15 0.24,-0.15 0.21,0 0.38,-0.02 0.51,-0.07 0.12,-0.04 0.21,-0.1 0.27,-0.17 0.06,-0.08 0.11,-0.21 0.15,-0.38 0.04,-0.19 0.06,-0.42 0.06,-0.71l0 -3.21c0,-0.74 -0.13,-1.29 -0.38,-1.65 -0.24,-0.33 -0.59,-0.5 -1.08,-0.5 -0.21,0 -0.42,0.03 -0.63,0.08 -0.21,0.05 -0.41,0.13 -0.61,0.23 -0.2,0.1 -0.38,0.23 -0.54,0.37l-0.1 0.09 0 4.59c0,0.28 0.02,0.52 0.06,0.71 0.04,0.17 0.09,0.3 0.15,0.38 0.06,0.08 0.15,0.13 0.27,0.17 0.13,0.05 0.31,0.07 0.51,0.07 0.2,0 0.3,0.11 0.3,0.34 0,0.23 -0.1,0.34 -0.3,0.34l-0.48 -0.01 -1.14 -0.03 -0.62 -0 -0.61 0 -1.13 0.03 -0.48 0.01c-0.18,0 -0.28,-0.11 -0.28,-0.34 0,-0.08 0.01,-0.14 0.04,-0.19 0.05,-0.1 0.13,-0.15 0.24,-0.15 0.21,0 0.38,-0.02 0.51,-0.07 0.12,-0.04 0.21,-0.1 0.27,-0.17 0.06,-0.08 0.11,-0.21 0.15,-0.38 0.04,-0.19 0.06,-0.42 0.06,-0.71l0 -3.21c0,-0.74 -0.13,-1.29 -0.38,-1.65 -0.24,-0.33 -0.59,-0.5 -1.08,-0.5 -0.21,0 -0.42,0.03 -0.63,0.08 -0.21,0.05 -0.41,0.13 -0.61,0.23 -0.2,0.1 -0.37,0.22 -0.53,0.36l0 4.69c0,0.28 0.02,0.52 0.06,0.71 0.04,0.17 0.09,0.3 0.15,0.38 0.06,0.07 0.15,0.13 0.27,0.17 0.13,0.05 0.31,0.07 0.51,0.07 0.18,0 0.28,0.11 0.28,0.34 0,0.23 -0.09,0.34 -0.28,0.34l-0.48 -0.01 -1.14 -0.03 -0.62 -0 -0.61 0 -1.13 0.03 -0.48 0.01c-0.18,0 -0.28,-0.11 -0.28,-0.34 0,-0.23 0.09,-0.34 0.28,-0.34 0.21,0 0.38,-0.02 0.51,-0.07 0.11,-0.04 0.2,-0.1 0.26,-0.17 0.06,-0.08 0.11,-0.21 0.14,-0.38 0.04,-0.19 0.06,-0.42 0.06,-0.71l0 -4.19c0,-0.22 -0.01,-0.41 -0.04,-0.57 -0.02,-0.15 -0.06,-0.27 -0.1,-0.36 -0.03,-0.07 -0.08,-0.12 -0.13,-0.15 -0.05,-0.03 -0.13,-0.05 -0.21,-0.05 -0.06,0 -0.12,0.01 -0.18,0.02 -0.07,0.01 -0.15,0.03 -0.23,0.05 -0.08,0.02 -0.17,0.05 -0.26,0.09 -0.1,0.04 -0.2,0.08 -0.3,0.13 -0.2,0.1 -0.34,0.03 -0.42,-0.21 -0.02,-0.07 -0.03,-0.12 -0.03,-0.17 0,-0.11 0.05,-0.19 0.14,-0.24 1.03,-0.38 2.18,-1.23 3.23,-1.56 0.05,-0.01 0.08,-0.02 0.11,-0.02 0.25,0 0.48,0.22 0.68,0.66 0.09,0.2 0.16,0.43 0.2,0.71l0.02 0.1c0.28,-0.3 0.59,-0.56 0.91,-0.79 0.33,-0.24 0.68,-0.42 1.04,-0.54 0.36,-0.12 0.74,-0.18 1.13,-0.18 0.41,0 0.79,0.06 1.11,0.17 0.33,0.12 0.62,0.3 0.86,0.53 0.24,0.24 0.41,0.53 0.53,0.88l0.04 0.14 0.17 -0.19c0.29,-0.31 0.6,-0.58 0.93,-0.81 0.33,-0.24 0.68,-0.42 1.04,-0.54 0.36,-0.12 0.74,-0.18 1.13,-0.18 0.42,0 0.79,0.06 1.12,0.18 0.33,0.12 0.62,0.31 0.86,0.56 0.24,0.25 0.41,0.57 0.53,0.95 0.11,0.37 0.17,0.81 0.17,1.3l0 4.28c0,0.28 0.02,0.52 0.06,0.71 0.04,0.17 0.09,0.3 0.15,0.38 0.06,0.07 0.15,0.13 0.27,0.17 0.13,0.05 0.31,0.07 0.51,0.07 0.2,0 0.3,0.11 0.3,0.34 0,0.08 -0.02,0.16 -0.06,0.21 -0.06,0.09 -0.14,0.13 -0.24,0.13l-0.48 -0.01 -1.13 -0.03 -0.62 -0 -0.61 0 -1.13 0.03 -0.48 0.01zm1.11 -0.67c-0.08,0.1 -0.17,0.18 -0.29,0.24l0.79 -0.02 0.61 -0.01 0.63 0.01 0.79 0.02c-0.12,-0.06 -0.21,-0.14 -0.29,-0.24 -0.11,-0.13 -0.18,-0.32 -0.23,-0.55 -0.05,-0.22 -0.07,-0.48 -0.07,-0.79l0 -4.28c0,-0.46 -0.05,-0.85 -0.15,-1.18 -0.1,-0.32 -0.24,-0.58 -0.43,-0.78 -0.19,-0.2 -0.42,-0.36 -0.7,-0.46 -0.28,-0.1 -0.6,-0.16 -0.97,-0.16 -0.35,0 -0.68,0.05 -1,0.16 -0.32,0.11 -0.63,0.27 -0.93,0.48 -0.3,0.22 -0.59,0.47 -0.87,0.76l-0.18 0.2c0.09,-0.06 0.19,-0.11 0.28,-0.17 0.23,-0.12 0.46,-0.21 0.7,-0.27 0.24,-0.06 0.48,-0.09 0.73,-0.09 0.63,0 1.1,0.23 1.42,0.68 0.3,0.43 0.45,1.06 0.45,1.89l0 3.21c0,0.31 -0.02,0.57 -0.07,0.79 -0.05,0.23 -0.13,0.42 -0.23,0.55zm-3.87 -5.41l-0.13 0.18 -0.3 -0.72 0.06 -0.09c0.1,-0.15 0.21,-0.3 0.31,-0.44 -0.02,-0.15 -0.06,-0.28 -0.1,-0.41 -0.1,-0.29 -0.24,-0.52 -0.43,-0.72 -0.19,-0.19 -0.42,-0.34 -0.7,-0.43 -0.28,-0.1 -0.6,-0.15 -0.97,-0.15 -0.35,0 -0.68,0.05 -1,0.16 -0.32,0.11 -0.63,0.27 -0.93,0.48 -0.3,0.22 -0.59,0.47 -0.87,0.76l-0.18 0.2c0.09,-0.06 0.19,-0.12 0.29,-0.17 0.23,-0.12 0.46,-0.21 0.7,-0.27 0.24,-0.06 0.48,-0.09 0.73,-0.09 0.63,0 1.1,0.23 1.42,0.68 0.3,0.43 0.45,1.06 0.45,1.89l0 3.21c0,0.31 -0.02,0.57 -0.07,0.79 -0.05,0.23 -0.13,0.42 -0.23,0.55 -0.08,0.1 -0.17,0.18 -0.29,0.24l0.79 -0.02 0.61 -0.01 0.63 0.01 0.79 0.02c-0.12,-0.06 -0.21,-0.14 -0.29,-0.24 -0.1,-0.13 -0.18,-0.32 -0.23,-0.55 -0.05,-0.22 -0.07,-0.48 -0.07,-0.79l0 -4.07zm-5.7 -0.16l-0.24 0.34 -0.3 -0.72 0.06 -0.09c0.15,-0.22 0.3,-0.43 0.46,-0.62 -0.01,-0.17 -0.03,-0.33 -0.05,-0.47 -0.04,-0.24 -0.09,-0.44 -0.17,-0.6 -0.12,-0.27 -0.22,-0.4 -0.29,-0.41l-0 0 -0.08 0.03 -2.16 1.06c0.07,-0.01 0.13,-0.01 0.19,-0.01 0.16,0 0.31,0.04 0.43,0.11 0.12,0.07 0.22,0.18 0.29,0.33 0.06,0.13 0.11,0.29 0.14,0.47 0.03,0.18 0.04,0.39 0.04,0.63l0 4.19c0,0.31 -0.02,0.57 -0.07,0.79 -0.05,0.23 -0.12,0.42 -0.22,0.55 -0.07,0.1 -0.17,0.18 -0.29,0.24l0.8 -0.02 0.61 -0.01 0.63 0.01 0.79 0.02c-0.12,-0.06 -0.21,-0.14 -0.29,-0.24 -0.11,-0.13 -0.18,-0.32 -0.23,-0.55 -0.05,-0.22 -0.07,-0.48 -0.07,-0.79l0 -4.23zm-0.52 -2.58c-0.01,0 0,0 0.01,0l-0.01 -0zm14.42 14.95c-0.18,0 -0.28,-0.11 -0.28,-0.34 0,-0.23 0.09,-0.34 0.28,-0.34 0.24,0 0.43,-0.02 0.58,-0.06 0.13,-0.04 0.21,-0.09 0.26,-0.15 0.12,-0.15 0.19,-0.53 0.19,-1.12l0 -10.32c0,-0.22 -0.01,-0.41 -0.04,-0.57 -0.02,-0.15 -0.06,-0.27 -0.1,-0.36 -0.03,-0.07 -0.08,-0.12 -0.13,-0.15 -0.06,-0.03 -0.14,-0.05 -0.23,-0.05 -0.05,0 -0.1,0.01 -0.16,0.02 -0.07,0.01 -0.14,0.03 -0.22,0.05 -0.08,0.02 -0.16,0.05 -0.26,0.09 -0.09,0.04 -0.19,0.08 -0.28,0.13 -0.1,0.05 -0.19,0.05 -0.28,-0.01 -0.06,-0.03 -0.11,-0.09 -0.16,-0.18 -0.03,-0.06 -0.05,-0.12 -0.06,-0.17 -0.02,-0.12 0.02,-0.21 0.13,-0.27l3.15 -1.54c0.03,-0.01 0.06,-0.03 0.1,-0.03 0.03,-0.01 0.07,-0.01 0.1,-0.01 0.25,0 0.48,0.22 0.67,0.66 0.07,0.16 0.12,0.34 0.16,0.54 0.32,-0.27 0.63,-0.49 0.94,-0.66 0.36,-0.2 0.72,-0.35 1.09,-0.45 0.37,-0.1 0.75,-0.15 1.13,-0.15 0.66,0 1.27,0.17 1.84,0.51 0.28,0.17 0.54,0.38 0.77,0.62 0.23,0.24 0.43,0.53 0.6,0.85 0.18,0.32 0.31,0.68 0.39,1.07 0.09,0.39 0.13,0.81 0.13,1.26 0,0.49 -0.04,0.94 -0.12,1.35 -0.08,0.42 -0.2,0.8 -0.36,1.14 -0.16,0.34 -0.34,0.65 -0.55,0.92 -0.21,0.27 -0.44,0.52 -0.7,0.72 -0.51,0.41 -1.06,0.71 -1.66,0.88 -0.59,0.18 -1.17,0.27 -1.74,0.27 -0.59,0 -1.1,-0.05 -1.52,-0.14l-0.18 -0.04 0 4c0,0.2 0.01,0.37 0.03,0.52 0.02,0.14 0.05,0.26 0.09,0.36 0.03,0.08 0.09,0.15 0.15,0.2 0.07,0.06 0.17,0.11 0.28,0.14 0.13,0.04 0.29,0.07 0.49,0.08 0.2,0.02 0.44,0.03 0.72,0.03 0.18,0 0.28,0.11 0.28,0.34 0,0.23 -0.09,0.34 -0.28,0.34l-0.67 -0.01 -0.74 -0.02c-0.26,-0.01 -0.53,-0.01 -0.8,-0.02l-0.84 -0 -0.61 0 -1.15 0.03 -0.49 0.01zm1.17 -0.64c-0.06,0.08 -0.15,0.15 -0.25,0.2l0.7 -0.02 0.61 -0.01 0.85 0.01 0.75 0.02c-0.11,-0.04 -0.21,-0.1 -0.3,-0.17 -0.12,-0.1 -0.21,-0.22 -0.27,-0.36 -0.06,-0.13 -0.1,-0.28 -0.12,-0.46 -0.03,-0.17 -0.04,-0.37 -0.04,-0.58l0 -4.11 -0.08 -0.02c-0.25,-0.07 -0.52,-0.16 -0.79,-0.25l-0.23 -0.08 1.05 -1.89 0.07 0.08 0 -4.48c-0.14,0.13 -0.28,0.28 -0.41,0.43l-0.16 0.18 -0.49 -0.59 0.11 -0.13c0.31,-0.36 0.61,-0.67 0.91,-0.95l-0.01 -0.1c-0.04,-0.24 -0.09,-0.44 -0.16,-0.6 -0.12,-0.27 -0.21,-0.41 -0.29,-0.41l-0.02 0 -2.23 1.09c0.07,-0.01 0.13,-0.01 0.19,-0.01 0.17,0 0.32,0.04 0.44,0.11 0.13,0.07 0.23,0.19 0.3,0.33 0.06,0.13 0.11,0.29 0.14,0.47 0.03,0.18 0.04,0.39 0.04,0.63l0 10.32c0,0.69 -0.09,1.15 -0.28,1.38zm2.32 -13.04l0 0.02 0.09 -0.07c0.22,-0.15 0.46,-0.27 0.72,-0.35 0.26,-0.08 0.53,-0.11 0.83,-0.11 0.4,0 0.77,0.08 1.12,0.24 0.35,0.16 0.67,0.39 0.96,0.71 0.58,0.63 0.88,1.56 0.88,2.8 0,0.68 -0.05,1.27 -0.15,1.77 -0.11,0.51 -0.26,0.93 -0.48,1.26 -0.22,0.33 -0.48,0.58 -0.78,0.75 -0.31,0.17 -0.65,0.26 -1.03,0.26 -0.33,0 -0.64,-0.04 -0.91,-0.11 -0.28,-0.07 -0.52,-0.18 -0.73,-0.33 -0.16,-0.12 -0.32,-0.25 -0.48,-0.39l0 0.77 0.27 0.06c0.39,0.09 0.87,0.13 1.43,0.13 0.53,0 1.07,-0.08 1.62,-0.25 0.54,-0.16 1.05,-0.43 1.52,-0.81 0.23,-0.18 0.44,-0.4 0.63,-0.65 0.19,-0.25 0.36,-0.53 0.5,-0.84 0.14,-0.31 0.25,-0.66 0.33,-1.04 0.07,-0.39 0.11,-0.81 0.11,-1.28 0,-0.42 -0.04,-0.81 -0.12,-1.17 -0.08,-0.35 -0.2,-0.67 -0.35,-0.96 -0.16,-0.29 -0.34,-0.54 -0.54,-0.76 -0.2,-0.22 -0.43,-0.4 -0.68,-0.55 -0.5,-0.3 -1.04,-0.45 -1.62,-0.45 -0.35,0 -0.69,0.05 -1.02,0.14 -0.34,0.09 -0.67,0.23 -1,0.42 -0.33,0.19 -0.67,0.43 -1.02,0.74l-0.06 0.05zm0.02 0.53l0 5.34c0.07,0.07 0.13,0.14 0.2,0.2 0.17,0.16 0.34,0.3 0.52,0.43 0.17,0.12 0.37,0.21 0.6,0.27 0.23,0.06 0.5,0.09 0.8,0.09 0.31,0 0.59,-0.07 0.83,-0.2 0.24,-0.14 0.46,-0.34 0.64,-0.62 0.19,-0.28 0.33,-0.65 0.42,-1.11 0.1,-0.47 0.14,-1.03 0.14,-1.69 0,-1.13 -0.26,-1.97 -0.76,-2.52 -0.25,-0.27 -0.53,-0.48 -0.83,-0.61 -0.29,-0.13 -0.61,-0.2 -0.95,-0.2 -0.25,0 -0.49,0.03 -0.71,0.1 -0.22,0.06 -0.41,0.16 -0.59,0.29 -0.1,0.07 -0.21,0.15 -0.31,0.24zm-0.42 6.59l0 -1.08 -0.51 0.92c0.18,0.06 0.35,0.11 0.51,0.16zm14.88 0.55c-0.05,0.02 -0.1,0.04 -0.15,0.05 -0.05,0.01 -0.11,0.02 -0.16,0.02 -0.34,0 -0.66,-0.21 -0.97,-0.62 -0.13,-0.18 -0.24,-0.4 -0.31,-0.65l-0.68 0.49c-0.17,0.13 -0.33,0.24 -0.49,0.34 -0.17,0.1 -0.33,0.18 -0.49,0.24 -0.32,0.12 -0.69,0.18 -1.09,0.18 -0.7,0 -1.24,-0.16 -1.59,-0.49 -0.18,-0.17 -0.32,-0.36 -0.41,-0.59 -0.09,-0.22 -0.13,-0.47 -0.13,-0.74 0,-0.27 0.04,-0.51 0.11,-0.72 0.08,-0.22 0.19,-0.4 0.35,-0.56 0.14,-0.14 0.31,-0.27 0.5,-0.38 0.19,-0.11 0.39,-0.21 0.62,-0.29l1.33 -0.48 1.86 -0.69 0 -1.12c0,-0.91 -0.07,-1.58 -0.21,-2 -0.06,-0.18 -0.14,-0.31 -0.25,-0.4 -0.09,-0.08 -0.21,-0.12 -0.36,-0.12 -0.3,0 -0.53,0.09 -0.67,0.27 -0.08,0.1 -0.15,0.21 -0.21,0.33 -0.06,0.11 -0.1,0.23 -0.13,0.36 -0.03,0.14 -0.06,0.27 -0.08,0.38 -0.02,0.11 -0.03,0.21 -0.04,0.3l-0 0c-0.02,0.25 -0.07,0.47 -0.15,0.65 -0.08,0.19 -0.19,0.35 -0.33,0.46 -0.13,0.11 -0.29,0.19 -0.46,0.25 -0.17,0.05 -0.36,0.08 -0.56,0.08 -0.21,0 -0.4,-0.02 -0.55,-0.07 -0.17,-0.05 -0.31,-0.13 -0.42,-0.24 -0.1,-0.1 -0.18,-0.22 -0.23,-0.34 -0.05,-0.13 -0.08,-0.26 -0.08,-0.41 0,-0.41 0.18,-0.8 0.54,-1.16 0.17,-0.17 0.36,-0.33 0.57,-0.47 0.21,-0.15 0.44,-0.28 0.69,-0.41 0.25,-0.13 0.51,-0.24 0.76,-0.34 0.26,-0.1 0.52,-0.18 0.79,-0.26 0.27,-0.07 0.53,-0.13 0.76,-0.16 0.24,-0.04 0.47,-0.06 0.68,-0.06 0.66,0 1.22,0.21 1.69,0.63 0.24,0.22 0.42,0.5 0.54,0.85 0.11,0.34 0.17,0.74 0.17,1.2l0 3.94c0,0.2 0.02,0.38 0.05,0.53 0.03,0.14 0.08,0.26 0.15,0.36 0.06,0.09 0.13,0.16 0.2,0.2 0.08,0.04 0.17,0.06 0.27,0.06 0.09,0 0.18,-0.01 0.27,-0.03 0.09,-0.02 0.19,-0.06 0.29,-0.1 0.09,-0.05 0.18,-0.05 0.27,0 0.07,0.03 0.12,0.09 0.16,0.18 0.04,0.09 0.05,0.18 0.02,0.25 -0.03,0.09 -0.09,0.15 -0.19,0.19l-2.27 1.08zm-0.23 -0.36c0.02,-0 0.03,-0.01 0.05,-0.01l1.64 -0.79c-0.17,-0 -0.33,-0.04 -0.47,-0.12 -0.14,-0.08 -0.26,-0.19 -0.36,-0.34 -0.09,-0.14 -0.16,-0.3 -0.2,-0.5 -0.04,-0.18 -0.06,-0.39 -0.06,-0.62l0 -3.94c0,-0.42 -0.05,-0.77 -0.15,-1.06 -0.1,-0.28 -0.24,-0.51 -0.42,-0.67 -0.39,-0.35 -0.86,-0.53 -1.41,-0.53 -0.19,0 -0.39,0.02 -0.6,0.05 0.12,0.04 0.22,0.09 0.31,0.17 0.16,0.13 0.29,0.33 0.38,0.59 0.16,0.46 0.23,1.17 0.23,2.13l0 0.96 0.16 -0.06 0.19 0.73 -0.35 0.16 0 1.91 0.62 -0.42 0.05 0.84 -0.6 0.43 0.02 0.08c0.06,0.23 0.15,0.42 0.27,0.58 0.22,0.3 0.43,0.45 0.63,0.45 0.03,0 0.06,-0 0.08,-0.01zm-1.49 -1.66l-0 -0.19 0 -1.81c-0.3,0.14 -0.58,0.27 -0.88,0.39l-0.29 0.12c-0.1,0.04 -0.19,0.1 -0.28,0.16 -0.09,0.06 -0.17,0.14 -0.25,0.22 -0.07,0.07 -0.12,0.16 -0.15,0.26 -0.04,0.11 -0.06,0.24 -0.06,0.39 0,0.16 0.03,0.3 0.08,0.42 0.05,0.11 0.12,0.2 0.22,0.27 0.21,0.16 0.42,0.24 0.63,0.24 0.1,0 0.2,-0.01 0.29,-0.04 0.04,-0.01 0.09,-0.03 0.14,-0.06 0.06,-0.03 0.12,-0.07 0.18,-0.11l0.38 -0.26zm-1.81 -6.48l0.06 -0.07 -0.24 0.09c-0.25,0.1 -0.49,0.2 -0.73,0.32 -0.23,0.12 -0.45,0.24 -0.64,0.38 -0.19,0.13 -0.36,0.28 -0.51,0.43 -0.28,0.28 -0.42,0.57 -0.42,0.87 0,0.09 0.02,0.18 0.05,0.25 0.03,0.07 0.08,0.14 0.14,0.2 0.06,0.06 0.14,0.1 0.24,0.13 0.12,0.03 0.26,0.05 0.43,0.05 0.16,0 0.31,-0.02 0.44,-0.06 0.12,-0.04 0.23,-0.09 0.32,-0.17 0.08,-0.07 0.15,-0.17 0.21,-0.3 0.06,-0.14 0.1,-0.32 0.12,-0.52 0.01,-0.1 0.02,-0.22 0.04,-0.34 0.02,-0.12 0.05,-0.26 0.08,-0.4 0.04,-0.15 0.09,-0.3 0.16,-0.45 0.07,-0.14 0.16,-0.28 0.26,-0.4zm-2.14 7.75c0.28,0.25 0.72,0.38 1.31,0.38 0.36,0 0.68,-0.05 0.95,-0.15 0.14,-0.05 0.28,-0.12 0.42,-0.2 0.15,-0.09 0.3,-0.19 0.46,-0.31l0.19 -0.14c-0.12,0.03 -0.25,0.05 -0.38,0.05 -0.3,0 -0.59,-0.11 -0.88,-0.32 -0.15,-0.11 -0.27,-0.26 -0.35,-0.44 -0.08,-0.17 -0.11,-0.37 -0.11,-0.59 0,-0.19 0.03,-0.37 0.08,-0.52 0.05,-0.16 0.14,-0.3 0.25,-0.41 0.1,-0.1 0.2,-0.19 0.31,-0.27 0.11,-0.08 0.23,-0.15 0.35,-0.2l0.3 -0.13 0.22 -0.09 0.36 -0.17c-0.86,0.32 -1.72,0.63 -2.59,0.95 -0.2,0.07 -0.39,0.16 -0.55,0.26 -0.16,0.1 -0.3,0.2 -0.42,0.32 -0.11,0.11 -0.19,0.24 -0.25,0.4 -0.06,0.16 -0.09,0.36 -0.09,0.58 0,0.22 0.03,0.41 0.1,0.58 0.07,0.17 0.17,0.31 0.3,0.43zm14.67 0.64c-0.18,0 -0.28,-0.11 -0.28,-0.34 0,-0.08 0.01,-0.14 0.04,-0.19 0.05,-0.1 0.13,-0.15 0.24,-0.15 0.21,0 0.38,-0.02 0.51,-0.07 0.11,-0.04 0.2,-0.1 0.26,-0.17 0.06,-0.08 0.11,-0.21 0.14,-0.38 0.04,-0.19 0.06,-0.42 0.06,-0.71l0 -3.21c0,-0.39 -0.03,-0.72 -0.1,-1 -0.06,-0.27 -0.16,-0.49 -0.29,-0.66 -0.12,-0.16 -0.28,-0.29 -0.47,-0.37 -0.2,-0.08 -0.44,-0.13 -0.73,-0.13 -0.21,0 -0.41,0.03 -0.62,0.08 -0.21,0.05 -0.43,0.13 -0.65,0.24 -0.22,0.1 -0.41,0.23 -0.59,0.37l-0.01 0.01 0 4.67c0,0.28 0.02,0.52 0.06,0.71 0.04,0.17 0.09,0.3 0.15,0.38 0.06,0.07 0.15,0.13 0.27,0.17 0.13,0.05 0.31,0.07 0.51,0.07 0.18,0 0.28,0.11 0.28,0.34 0,0.23 -0.09,0.34 -0.28,0.34l-0.48 -0.01 -1.14 -0.03 -0.62 -0 -0.61 0 -1.13 0.03 -0.48 0.01c-0.18,0 -0.28,-0.11 -0.28,-0.34 0,-0.23 0.09,-0.34 0.28,-0.34 0.21,0 0.38,-0.02 0.51,-0.07 0.11,-0.04 0.2,-0.1 0.26,-0.17 0.06,-0.08 0.11,-0.21 0.14,-0.38 0.04,-0.19 0.06,-0.42 0.06,-0.71l0 -4.19c0,-0.22 -0.01,-0.41 -0.04,-0.57 -0.02,-0.15 -0.06,-0.27 -0.1,-0.36 -0.03,-0.07 -0.08,-0.12 -0.13,-0.15 -0.05,-0.03 -0.13,-0.05 -0.21,-0.05 -0.06,0 -0.12,0.01 -0.18,0.02 -0.07,0.01 -0.15,0.03 -0.23,0.05 -0.08,0.02 -0.17,0.05 -0.26,0.09 -0.1,0.04 -0.2,0.08 -0.3,0.13 -0.2,0.1 -0.34,0.03 -0.42,-0.21 -0.02,-0.07 -0.03,-0.12 -0.03,-0.17 0,-0.11 0.05,-0.19 0.14,-0.24 1.03,-0.38 2.18,-1.23 3.23,-1.56 0.05,-0.01 0.08,-0.02 0.11,-0.02 0.25,0 0.48,0.22 0.68,0.66 0.09,0.2 0.16,0.43 0.2,0.71l0.02 0.13 0 -0c0.3,-0.31 0.62,-0.58 0.96,-0.81 0.34,-0.24 0.7,-0.42 1.08,-0.54 0.38,-0.12 0.77,-0.18 1.17,-0.18 0.44,0 0.83,0.07 1.18,0.21 0.35,0.14 0.65,0.36 0.9,0.64 0.24,0.28 0.43,0.6 0.55,0.96 0.12,0.36 0.18,0.75 0.18,1.18l0 4.28c0,0.28 0.02,0.52 0.06,0.71 0.04,0.17 0.09,0.3 0.15,0.38 0.06,0.08 0.15,0.13 0.27,0.17 0.13,0.05 0.31,0.07 0.51,0.07 0.18,0 0.28,0.11 0.28,0.34 0,0.08 -0.01,0.14 -0.04,0.19 -0.05,0.1 -0.13,0.15 -0.24,0.15l-0.48 -0.01 -1.13 -0.03 -0.62 -0 -0.61 0 -1.13 0.03 -0.48 0.01zm1.1 -0.67c-0.07,0.1 -0.17,0.18 -0.29,0.24l0.79 -0.02 0.61 -0.01 0.63 0.01 0.79 0.02c-0.12,-0.06 -0.21,-0.14 -0.29,-0.24 -0.11,-0.13 -0.18,-0.32 -0.23,-0.55 -0.05,-0.22 -0.07,-0.48 -0.07,-0.79l0 -4.28c0,-0.39 -0.05,-0.74 -0.16,-1.05 -0.1,-0.31 -0.26,-0.58 -0.47,-0.82 -0.2,-0.23 -0.45,-0.41 -0.74,-0.53 -0.29,-0.12 -0.64,-0.18 -1.02,-0.18 -0.36,0 -0.71,0.05 -1.05,0.16 -0.33,0.11 -0.66,0.27 -0.96,0.48 -0.32,0.22 -0.61,0.47 -0.9,0.76 -0.08,0.08 -0.15,0.16 -0.23,0.25 0.12,-0.08 0.26,-0.15 0.39,-0.22 0.24,-0.12 0.49,-0.21 0.73,-0.27 0.24,-0.06 0.49,-0.09 0.72,-0.09 0.34,0 0.63,0.05 0.89,0.16 0.26,0.11 0.48,0.28 0.64,0.5 0.16,0.22 0.28,0.49 0.36,0.81 0.08,0.31 0.11,0.68 0.11,1.1l0 3.21c0,0.31 -0.02,0.57 -0.07,0.79 -0.05,0.23 -0.12,0.42 -0.22,0.55zm-4.01 -5.57l-0.24 0.33 -0.3 -0.72 0.07 -0.09c0.15,-0.21 0.3,-0.42 0.46,-0.61 -0.01,-0.18 -0.03,-0.34 -0.05,-0.48 -0.04,-0.24 -0.09,-0.44 -0.17,-0.6 -0.12,-0.27 -0.22,-0.4 -0.29,-0.41l-0 0 -0.08 0.03 -2.16 1.06c0.07,-0.01 0.13,-0.01 0.19,-0.01 0.16,0 0.31,0.04 0.43,0.11 0.12,0.07 0.22,0.18 0.29,0.33 0.06,0.13 0.11,0.29 0.14,0.47 0.03,0.18 0.04,0.39 0.04,0.63l0 4.19c0,0.31 -0.02,0.57 -0.07,0.79 -0.05,0.23 -0.12,0.42 -0.22,0.55 -0.07,0.1 -0.17,0.18 -0.29,0.24l0.8 -0.02 0.61 -0.01 0.63 0.01 0.8 0.02c-0.12,-0.06 -0.21,-0.14 -0.29,-0.24 -0.11,-0.13 -0.18,-0.32 -0.23,-0.55 -0.05,-0.22 -0.07,-0.48 -0.07,-0.79l0 -4.23zm-0.52 -2.58c-0.01,0 0,0 0.01,0l-0.01 -0zm9.14 8.82c-0.18,0 -0.28,-0.11 -0.28,-0.34 0,-0.08 0.01,-0.14 0.04,-0.19 0.05,-0.1 0.13,-0.15 0.24,-0.15 0.21,0 0.38,-0.02 0.51,-0.07 0.11,-0.04 0.2,-0.1 0.26,-0.17 0.06,-0.08 0.11,-0.21 0.14,-0.38 0.04,-0.19 0.06,-0.42 0.06,-0.71l0 -3.99c0,-0.24 -0.01,-0.44 -0.03,-0.61 -0.02,-0.16 -0.05,-0.29 -0.09,-0.39 -0.03,-0.08 -0.07,-0.13 -0.12,-0.17 -0.05,-0.03 -0.12,-0.05 -0.2,-0.05 -0.04,0 -0.09,0 -0.13,0.01 -0.05,0.01 -0.1,0.02 -0.17,0.04 -0.06,0.02 -0.13,0.04 -0.21,0.07 -0.07,0.03 -0.14,0.06 -0.23,0.1l-0.04 0.01c-0.09,0.02 -0.18,0.01 -0.26,-0.05 -0.05,-0.04 -0.1,-0.1 -0.13,-0.18 -0.03,-0.08 -0.04,-0.14 -0.04,-0.2 0.01,-0.11 0.06,-0.19 0.16,-0.23l3.35 -1.56 0.06 -0.02c0.03,-0.01 0.07,-0.02 0.09,-0.02 0.07,0 0.14,0.02 0.2,0.05 0.06,0.03 0.11,0.07 0.17,0.12 0.05,0.05 0.09,0.1 0.12,0.15 0.04,0.07 0.05,0.13 0.05,0.2l-0.01 0.36 -0.02 0.54c-0.01,0.21 -0.01,0.46 -0.02,0.75l-0 1.02 0 4.03c0,0.55 0.07,0.91 0.21,1.09 0.06,0.08 0.15,0.13 0.27,0.17 0.13,0.05 0.31,0.07 0.51,0.07 0.18,0 0.28,0.11 0.28,0.34 0,0.08 -0.01,0.14 -0.04,0.19 -0.05,0.1 -0.13,0.15 -0.24,0.15l-0.48 -0.01 -1.14 -0.03 -0.62 -0 -0.61 0 -1.13 0.03 -0.48 0.01zm1.1 -0.67c-0.07,0.1 -0.17,0.18 -0.29,0.24l0.8 -0.02 0.61 -0.01 0.63 0.01 0.8 0.02c-0.12,-0.06 -0.21,-0.14 -0.29,-0.24 -0.2,-0.25 -0.3,-0.7 -0.3,-1.34l0 -4.03 0.01 -1.03c0,-0.3 0.01,-0.56 0.02,-0.76l0.02 -0.53 0 -0.34c-0.01,-0.02 -0.03,-0.04 -0.05,-0.06 -0.02,-0.02 -0.04,-0.03 -0.06,-0.04l-2.54 1.18 0.06 -0c0.17,0 0.31,0.04 0.43,0.12 0.12,0.08 0.22,0.2 0.28,0.35 0.05,0.13 0.1,0.3 0.12,0.5 0.03,0.19 0.04,0.41 0.04,0.66l0 3.99c0,0.31 -0.02,0.57 -0.07,0.79 -0.05,0.23 -0.12,0.42 -0.22,0.55zm2 -8.04l-0 0 0 -0zm-0 0l0 -0.01c0,-0 -0,0 -0,0.01zm-0.97 -2.31c-0.23,0 -0.44,-0.03 -0.63,-0.1 -0.19,-0.07 -0.36,-0.17 -0.5,-0.31 -0.14,-0.14 -0.25,-0.31 -0.33,-0.51 -0.07,-0.19 -0.1,-0.41 -0.1,-0.65 0,-0.22 0.04,-0.42 0.11,-0.6 0.07,-0.18 0.18,-0.34 0.33,-0.48 0.14,-0.13 0.31,-0.24 0.5,-0.3 0.19,-0.07 0.4,-0.1 0.63,-0.1 0.23,0 0.44,0.03 0.62,0.1 0.19,0.07 0.35,0.17 0.48,0.31 0.13,0.14 0.23,0.3 0.3,0.48 0.06,0.18 0.1,0.38 0.1,0.59 0,1.05 -0.5,1.57 -1.5,1.57zm-0.49 -0.49c0.14,0.05 0.3,0.08 0.49,0.08 0.72,0 1.08,-0.38 1.08,-1.15 0,-0.17 -0.02,-0.32 -0.07,-0.45 -0.05,-0.13 -0.11,-0.24 -0.2,-0.33 -0.09,-0.09 -0.2,-0.16 -0.33,-0.21 -0.14,-0.05 -0.29,-0.07 -0.48,-0.07 -0.18,0 -0.35,0.02 -0.49,0.07 -0.14,0.05 -0.25,0.12 -0.36,0.21 -0.1,0.09 -0.17,0.2 -0.22,0.33 -0.05,0.13 -0.08,0.28 -0.08,0.44 0,0.19 0.03,0.36 0.08,0.5 0.05,0.14 0.12,0.25 0.22,0.35 0.1,0.1 0.22,0.17 0.35,0.22zm8.59 11.81c-0.48,0 -0.94,-0.06 -1.36,-0.17 -0.42,-0.11 -0.81,-0.28 -1.17,-0.51 -0.36,-0.23 -0.67,-0.49 -0.95,-0.79 -0.27,-0.3 -0.51,-0.64 -0.7,-1.02 -0.19,-0.38 -0.34,-0.77 -0.43,-1.17 -0.1,-0.4 -0.14,-0.82 -0.14,-1.25 0,-0.81 0.16,-1.51 0.47,-2.1 0.16,-0.3 0.34,-0.57 0.54,-0.81 0.21,-0.24 0.44,-0.46 0.69,-0.65 0.25,-0.19 0.52,-0.35 0.8,-0.5 0.27,-0.14 0.56,-0.26 0.87,-0.35 0.3,-0.09 0.59,-0.16 0.89,-0.21 0.3,-0.05 0.59,-0.07 0.88,-0.07 0.49,0 0.95,0.06 1.37,0.18 0.43,0.12 0.82,0.29 1.17,0.53 0.35,0.23 0.66,0.5 0.93,0.8 0.27,0.3 0.5,0.63 0.68,1 0.18,0.36 0.32,0.74 0.42,1.13 0.09,0.39 0.14,0.79 0.14,1.2 0,0.47 -0.06,0.92 -0.18,1.33 -0.12,0.42 -0.3,0.81 -0.53,1.17 -0.24,0.36 -0.51,0.68 -0.82,0.96 -0.31,0.28 -0.66,0.52 -1.05,0.72 -0.39,0.2 -0.79,0.35 -1.21,0.44 -0.42,0.1 -0.85,0.15 -1.31,0.15zm-1.25 -0.57c0.39,0.1 0.8,0.15 1.25,0.15 0.26,0 0.51,-0.02 0.76,-0.05l-0.09 0c-0.29,0 -0.56,-0.06 -0.83,-0.17 -0.26,-0.11 -0.51,-0.28 -0.74,-0.51 -0.45,-0.44 -0.81,-1.06 -1.07,-1.86 -0.13,-0.39 -0.23,-0.82 -0.29,-1.28 -0.06,-0.46 -0.1,-0.94 -0.1,-1.45 0,-0.55 0.04,-1.04 0.12,-1.45 0.08,-0.42 0.2,-0.78 0.37,-1.06 0.17,-0.29 0.38,-0.51 0.63,-0.66l0.09 -0.05 -0.12 0.04c-0.27,0.08 -0.54,0.19 -0.8,0.32 -0.26,0.13 -0.5,0.28 -0.73,0.46 -0.23,0.17 -0.44,0.37 -0.63,0.59 -0.19,0.22 -0.35,0.47 -0.49,0.73 -0.28,0.53 -0.42,1.17 -0.42,1.91 0,0.4 0.04,0.79 0.13,1.16 0.09,0.37 0.22,0.73 0.4,1.08 0.18,0.34 0.39,0.65 0.64,0.93 0.25,0.27 0.54,0.51 0.86,0.72 0.32,0.2 0.67,0.36 1.06,0.46zm1.63 -8.61c-0.24,0 -0.48,0.02 -0.72,0.05 0.25,0 0.5,0.06 0.74,0.16 0.25,0.1 0.49,0.25 0.72,0.45 0.46,0.39 0.83,0.97 1.11,1.73 0.14,0.38 0.25,0.8 0.32,1.27 0.07,0.46 0.11,0.97 0.11,1.52 0,0.54 -0.04,1.02 -0.12,1.44 -0.08,0.43 -0.2,0.8 -0.35,1.1 -0.16,0.32 -0.37,0.57 -0.63,0.73 -0.1,0.07 -0.21,0.12 -0.32,0.16 0.38,-0.09 0.75,-0.23 1.09,-0.4 0.35,-0.18 0.67,-0.4 0.96,-0.65 0.28,-0.26 0.53,-0.55 0.75,-0.88 0.21,-0.33 0.37,-0.68 0.48,-1.06 0.11,-0.38 0.16,-0.79 0.16,-1.22 0,-0.38 -0.04,-0.75 -0.13,-1.1 -0.08,-0.35 -0.21,-0.7 -0.38,-1.03 -0.17,-0.33 -0.38,-0.64 -0.62,-0.91 -0.25,-0.27 -0.53,-0.52 -0.85,-0.73 -0.32,-0.21 -0.67,-0.37 -1.05,-0.47 -0.39,-0.11 -0.81,-0.16 -1.26,-0.16zm0.29 8.29c0.26,0 0.48,-0.06 0.66,-0.18 0.19,-0.12 0.35,-0.31 0.48,-0.57 0.14,-0.27 0.24,-0.6 0.31,-0.99 0.07,-0.39 0.11,-0.85 0.11,-1.37 0,-0.53 -0.03,-1.02 -0.1,-1.46 -0.07,-0.44 -0.17,-0.83 -0.3,-1.18 -0.26,-0.7 -0.59,-1.22 -0.99,-1.56 -0.2,-0.17 -0.4,-0.3 -0.6,-0.38 -0.2,-0.08 -0.4,-0.12 -0.61,-0.12 -0.25,0 -0.47,0.06 -0.66,0.17 -0.19,0.11 -0.35,0.28 -0.48,0.51 -0.14,0.24 -0.25,0.55 -0.32,0.93 -0.07,0.39 -0.11,0.84 -0.11,1.38 0,0.5 0.03,0.96 0.09,1.39 0.06,0.43 0.15,0.83 0.27,1.2 0.24,0.73 0.56,1.29 0.97,1.69 0.2,0.19 0.4,0.33 0.61,0.43 0.21,0.09 0.43,0.14 0.66,0.14zm11.76 0.6c-0.18,0 -0.28,-0.11 -0.28,-0.34 0,-0.08 0.01,-0.14 0.04,-0.19 0.05,-0.1 0.13,-0.15 0.24,-0.15 0.21,0 0.38,-0.02 0.51,-0.07 0.11,-0.04 0.2,-0.1 0.26,-0.17 0.06,-0.08 0.11,-0.21 0.15,-0.38 0.04,-0.19 0.06,-0.42 0.06,-0.71l0 -3.21c0,-0.39 -0.03,-0.72 -0.1,-1 -0.06,-0.27 -0.16,-0.49 -0.29,-0.66 -0.12,-0.16 -0.28,-0.29 -0.47,-0.37 -0.2,-0.08 -0.44,-0.13 -0.73,-0.13 -0.21,0 -0.41,0.03 -0.62,0.08 -0.21,0.05 -0.43,0.13 -0.65,0.24 -0.22,0.1 -0.41,0.23 -0.59,0.37l-0.01 0.01 0 4.67c0,0.28 0.02,0.52 0.06,0.71 0.04,0.17 0.09,0.3 0.15,0.38 0.06,0.08 0.15,0.13 0.27,0.17 0.13,0.05 0.31,0.07 0.51,0.07 0.18,0 0.28,0.11 0.28,0.34 0,0.23 -0.09,0.34 -0.28,0.34l-0.48 -0.01 -1.14 -0.03 -0.62 -0 -0.61 0 -1.13 0.03 -0.48 0.01c-0.18,0 -0.28,-0.11 -0.28,-0.34 0,-0.08 0.01,-0.14 0.04,-0.19 0.05,-0.1 0.13,-0.15 0.24,-0.15 0.21,0 0.38,-0.02 0.51,-0.07 0.11,-0.04 0.2,-0.1 0.26,-0.17 0.06,-0.08 0.11,-0.21 0.14,-0.38 0.04,-0.19 0.06,-0.42 0.06,-0.71l0 -4.19c0,-0.22 -0.01,-0.41 -0.04,-0.57 -0.02,-0.15 -0.06,-0.27 -0.1,-0.36 -0.03,-0.07 -0.08,-0.12 -0.13,-0.15 -0.05,-0.03 -0.13,-0.05 -0.21,-0.05 -0.06,0 -0.12,0.01 -0.18,0.02 -0.07,0.01 -0.15,0.03 -0.23,0.05 -0.08,0.02 -0.17,0.05 -0.27,0.09 -0.1,0.04 -0.2,0.08 -0.3,0.13 -0.2,0.1 -0.34,0.03 -0.42,-0.21 -0.02,-0.07 -0.03,-0.12 -0.03,-0.17 0,-0.11 0.05,-0.19 0.14,-0.24 1.03,-0.38 2.18,-1.23 3.23,-1.56 0.05,-0.01 0.08,-0.02 0.11,-0.02 0.25,0 0.48,0.22 0.68,0.66 0.09,0.2 0.16,0.43 0.2,0.71l0.02 0.13 0 -0c0.3,-0.31 0.62,-0.58 0.96,-0.81 0.34,-0.24 0.7,-0.42 1.08,-0.54 0.38,-0.12 0.77,-0.18 1.17,-0.18 0.44,0 0.83,0.07 1.18,0.21 0.35,0.14 0.65,0.36 0.9,0.64 0.24,0.28 0.43,0.6 0.55,0.96 0.12,0.36 0.18,0.75 0.18,1.18l0 4.28c0,0.28 0.02,0.52 0.06,0.71 0.04,0.17 0.09,0.3 0.15,0.38 0.06,0.07 0.15,0.13 0.27,0.17 0.13,0.05 0.31,0.07 0.51,0.07 0.18,0 0.28,0.11 0.28,0.34 0,0.08 -0.01,0.14 -0.04,0.19 -0.05,0.1 -0.13,0.15 -0.24,0.15l-0.48 -0.01 -1.13 -0.03 -0.62 -0 -0.61 0 -1.13 0.03 -0.48 0.01zm1.1 -0.67c-0.07,0.1 -0.17,0.18 -0.29,0.24l0.8 -0.02 0.61 -0.01 0.63 0.01 0.79 0.02c-0.12,-0.06 -0.21,-0.14 -0.29,-0.24 -0.11,-0.13 -0.18,-0.32 -0.23,-0.55 -0.05,-0.22 -0.07,-0.48 -0.07,-0.79l0 -4.28c0,-0.39 -0.05,-0.74 -0.16,-1.05 -0.1,-0.31 -0.26,-0.58 -0.47,-0.82 -0.2,-0.23 -0.45,-0.41 -0.74,-0.53 -0.29,-0.12 -0.64,-0.18 -1.02,-0.18 -0.36,0 -0.71,0.05 -1.05,0.16 -0.33,0.11 -0.66,0.27 -0.96,0.48 -0.32,0.22 -0.61,0.47 -0.9,0.76 -0.08,0.08 -0.15,0.16 -0.23,0.25 0.12,-0.08 0.26,-0.15 0.39,-0.22 0.25,-0.12 0.49,-0.21 0.73,-0.27 0.24,-0.06 0.49,-0.09 0.72,-0.09 0.34,0 0.63,0.05 0.89,0.16 0.26,0.11 0.48,0.28 0.64,0.5 0.16,0.21 0.28,0.49 0.36,0.81 0.08,0.31 0.11,0.68 0.11,1.1l0 3.21c0,0.31 -0.02,0.57 -0.07,0.79 -0.05,0.23 -0.12,0.42 -0.22,0.55zm-4.01 -5.57l-0.24 0.33 -0.3 -0.72 0.07 -0.09c0.15,-0.21 0.3,-0.42 0.46,-0.61 -0.01,-0.18 -0.03,-0.34 -0.05,-0.48 -0.04,-0.24 -0.09,-0.44 -0.17,-0.6 -0.12,-0.27 -0.22,-0.4 -0.29,-0.41l-0.08 0.03 -2.16 1.06c0.07,-0.01 0.13,-0.01 0.19,-0.01 0.16,0 0.31,0.04 0.43,0.11 0.12,0.07 0.22,0.18 0.29,0.33 0.06,0.13 0.11,0.29 0.14,0.47 0.03,0.18 0.04,0.39 0.04,0.63l0 4.19c0,0.31 -0.02,0.57 -0.07,0.79 -0.05,0.23 -0.12,0.42 -0.22,0.55 -0.07,0.1 -0.17,0.18 -0.29,0.24l0.8 -0.02 0.61 -0.01 0.63 0.01 0.79 0.02c-0.12,-0.06 -0.21,-0.14 -0.29,-0.24 -0.11,-0.13 -0.18,-0.32 -0.23,-0.55 -0.05,-0.22 -0.07,-0.48 -0.07,-0.79l0 -4.23zm-0.52 -2.58c-0.01,0 0,0 0.01,0l-0.01 -0z"/>
   <path class="fil2" d="M46.01 5.71c0.44,0 0.91,0.02 1.39,0.07 0.48,0.04 0.94,0.11 1.36,0.2 0.43,0.09 0.79,0.2 1.09,0.33 0.13,0.04 0.22,0.1 0.26,0.17 0.04,0.07 0.06,0.18 0.08,0.35l0.29 3.1c0,0.04 -0.04,0.07 -0.11,0.09 -0.07,0.01 -0.13,-0.01 -0.16,-0.07 -0.41,-1.2 -1,-2.13 -1.76,-2.79 -0.76,-0.65 -1.69,-0.98 -2.78,-0.98 -1.01,0 -1.9,0.27 -2.7,0.81 -0.79,0.54 -1.41,1.31 -1.86,2.31 -0.45,1 -0.68,2.18 -0.68,3.57 0,1.04 0.13,1.98 0.4,2.82 0.27,0.84 0.64,1.56 1.13,2.15 0.49,0.59 1.07,1.05 1.73,1.37 0.67,0.32 1.4,0.48 2.2,0.48 1.05,0 1.92,-0.29 2.61,-0.86 0.69,-0.57 1.34,-1.48 1.94,-2.73 0.03,-0.04 0.08,-0.06 0.14,-0.04 0.07,0.01 0.1,0.04 0.1,0.09l-0.33 2.76c-0.01,0.18 -0.04,0.29 -0.08,0.35 -0.04,0.05 -0.12,0.11 -0.26,0.17 -0.71,0.25 -1.42,0.44 -2.12,0.56 -0.7,0.12 -1.37,0.18 -2.01,0.18 -1.6,0 -3.02,-0.3 -4.26,-0.9 -1.24,-0.6 -2.22,-1.44 -2.93,-2.52 -0.71,-1.08 -1.07,-2.31 -1.07,-3.71 0,-1.07 0.21,-2.05 0.63,-2.95 0.42,-0.9 1.01,-1.67 1.77,-2.32 0.76,-0.65 1.65,-1.15 2.67,-1.5 1.02,-0.36 2.12,-0.53 3.31,-0.53zm10.89 14.46c-0.93,0 -1.74,-0.22 -2.42,-0.65 -0.68,-0.43 -1.21,-1.01 -1.58,-1.73 -0.37,-0.72 -0.55,-1.5 -0.55,-2.33 0,-0.77 0.15,-1.44 0.44,-2.01 0.3,-0.56 0.69,-1.03 1.18,-1.39 0.49,-0.36 1.02,-0.64 1.6,-0.81 0.58,-0.18 1.15,-0.27 1.71,-0.27 0.95,0 1.76,0.22 2.43,0.67 0.67,0.45 1.19,1.02 1.54,1.72 0.36,0.7 0.53,1.44 0.53,2.23 0,0.91 -0.23,1.7 -0.68,2.4 -0.45,0.69 -1.05,1.23 -1.79,1.6 -0.74,0.38 -1.55,0.57 -2.42,0.57zm0.67 -0.47c0.59,0 1.04,-0.29 1.33,-0.87 0.3,-0.58 0.44,-1.4 0.44,-2.45 0,-1.08 -0.14,-1.99 -0.41,-2.72 -0.27,-0.73 -0.63,-1.28 -1.05,-1.65 -0.43,-0.37 -0.88,-0.56 -1.35,-0.56 -0.58,0 -1.02,0.26 -1.32,0.78 -0.3,0.52 -0.45,1.32 -0.45,2.41 0,1.01 0.13,1.9 0.38,2.66 0.25,0.76 0.59,1.36 1.02,1.77 0.43,0.42 0.9,0.62 1.42,0.62zm17.31 0.18c-0.04,0 -0.07,-0.04 -0.07,-0.13 0,-0.09 0.02,-0.13 0.07,-0.13 0.46,0 0.77,-0.11 0.94,-0.32 0.17,-0.22 0.26,-0.62 0.26,-1.21l0 -3.21c0,-1.57 -0.55,-2.36 -1.66,-2.36 -0.46,0 -0.9,0.11 -1.33,0.33 -0.43,0.22 -0.78,0.53 -1.04,0.91l-0.11 -0.27c0.5,-0.74 1.07,-1.34 1.7,-1.79 0.63,-0.45 1.31,-0.68 2.05,-0.68 0.78,0 1.39,0.23 1.82,0.68 0.43,0.45 0.64,1.15 0.64,2.11l0 4.28c0,0.59 0.08,1 0.26,1.21 0.17,0.22 0.48,0.32 0.94,0.32 0.06,0 0.09,0.04 0.09,0.13 0,0.09 -0.03,0.13 -0.09,0.13 -0.3,0 -0.64,-0.01 -1.02,-0.02 -0.38,-0.01 -0.79,-0.02 -1.22,-0.02 -0.41,0 -0.81,0.01 -1.2,0.02 -0.38,0.01 -0.72,0.02 -1.02,0.02zm-5.81 0c-0.04,0 -0.07,-0.04 -0.07,-0.13 0,-0.09 0.02,-0.13 0.07,-0.13 0.46,0 0.77,-0.11 0.94,-0.32 0.17,-0.22 0.25,-0.62 0.25,-1.21l0 -3.21c0,-1.57 -0.55,-2.36 -1.66,-2.36 -0.46,0 -0.9,0.11 -1.33,0.33 -0.43,0.22 -0.78,0.53 -1.04,0.91l-0.11 -0.27c0.5,-0.74 1.07,-1.34 1.7,-1.79 0.63,-0.45 1.31,-0.68 2.05,-0.68 0.78,0 1.39,0.22 1.82,0.65 0.43,0.43 0.64,1.06 0.64,1.89l0 4.52c0,0.59 0.08,1 0.26,1.21 0.17,0.22 0.48,0.32 0.94,0.32 0.06,0 0.09,0.04 0.09,0.13 0,0.09 -0.03,0.13 -0.09,0.13 -0.3,0 -0.64,-0.01 -1.02,-0.02 -0.38,-0.01 -0.79,-0.02 -1.22,-0.02 -0.41,0 -0.81,0.01 -1.2,0.02 -0.38,0.01 -0.72,0.02 -1.02,0.02zm-5.7 0c-0.04,0 -0.07,-0.04 -0.07,-0.13 0,-0.09 0.02,-0.13 0.07,-0.13 0.46,0 0.77,-0.11 0.93,-0.32 0.16,-0.22 0.24,-0.62 0.24,-1.21l0 -4.19c0,-0.46 -0.05,-0.8 -0.16,-1.01 -0.1,-0.22 -0.28,-0.32 -0.53,-0.32 -0.13,0 -0.29,0.03 -0.47,0.08 -0.18,0.05 -0.38,0.13 -0.6,0.23 -0.06,0.03 -0.1,0 -0.13,-0.09 -0.03,-0.09 -0.03,-0.14 0,-0.16l3.08 -1.52c0.09,-0.03 0.14,-0.04 0.16,-0.04 0.16,0 0.33,0.18 0.49,0.53 0.16,0.36 0.24,0.87 0.24,1.54l0 4.95c0,0.59 0.08,1 0.26,1.21 0.17,0.22 0.48,0.32 0.94,0.32 0.04,0 0.07,0.04 0.07,0.13 0,0.09 -0.02,0.13 -0.07,0.13 -0.3,0 -0.64,-0.01 -1.02,-0.02 -0.38,-0.01 -0.79,-0.02 -1.22,-0.02 -0.41,0 -0.81,0.01 -1.2,0.02 -0.38,0.01 -0.72,0.02 -1.02,0.02zm16.95 6.13c-0.04,0 -0.07,-0.04 -0.07,-0.13 0,-0.09 0.02,-0.13 0.07,-0.13 0.52,0 0.85,-0.1 1.01,-0.29 0.16,-0.19 0.23,-0.61 0.23,-1.25l0 -10.32c0,-0.46 -0.05,-0.8 -0.16,-1.01 -0.1,-0.22 -0.29,-0.32 -0.55,-0.32 -0.12,0 -0.27,0.03 -0.44,0.08 -0.18,0.05 -0.37,0.13 -0.58,0.23 -0.06,0.03 -0.11,0 -0.16,-0.09 -0.04,-0.09 -0.05,-0.14 -0.02,-0.16l3.15 -1.54c0.03,-0.01 0.07,-0.02 0.11,-0.02 0.16,0 0.32,0.18 0.48,0.53 0.16,0.36 0.23,0.87 0.23,1.54l0 11.07c0,0.42 0.05,0.74 0.14,0.96 0.1,0.22 0.29,0.37 0.57,0.46 0.28,0.08 0.7,0.12 1.26,0.12 0.04,0 0.07,0.04 0.07,0.13 0,0.09 -0.02,0.13 -0.07,0.13 -0.41,0 -0.88,-0.01 -1.4,-0.02 -0.52,-0.01 -1.07,-0.02 -1.64,-0.02 -0.41,0 -0.82,0.01 -1.21,0.02 -0.39,0.01 -0.74,0.02 -1.03,0.02zm5.21 -5.84c-0.58,0 -1.07,-0.04 -1.47,-0.13 -0.41,-0.09 -0.89,-0.23 -1.45,-0.42l0.78 -1.4c0.33,0.4 0.68,0.74 1.05,1 0.38,0.27 0.88,0.4 1.52,0.4 0.7,0 1.24,-0.3 1.64,-0.91 0.4,-0.61 0.6,-1.58 0.6,-2.92 0,-1.19 -0.27,-2.08 -0.82,-2.66 -0.55,-0.59 -1.19,-0.88 -1.93,-0.88 -0.55,0 -1.02,0.14 -1.42,0.42 -0.4,0.28 -0.79,0.64 -1.18,1.07l-0.22 -0.27c0.75,-0.88 1.48,-1.51 2.16,-1.89 0.69,-0.39 1.39,-0.58 2.12,-0.58 0.62,0 1.2,0.16 1.73,0.48 0.53,0.32 0.97,0.78 1.3,1.39 0.33,0.61 0.5,1.35 0.5,2.23 0,0.95 -0.15,1.75 -0.45,2.41 -0.3,0.65 -0.7,1.18 -1.19,1.57 -0.49,0.39 -1.02,0.68 -1.59,0.85 -0.57,0.17 -1.13,0.26 -1.68,0.26zm12.67 -0.16c-0.06,0.03 -0.13,0.04 -0.22,0.04 -0.27,0 -0.53,-0.18 -0.8,-0.53 -0.27,-0.36 -0.4,-0.87 -0.4,-1.54l0 -3.79c0,-0.94 -0.07,-1.62 -0.22,-2.06 -0.15,-0.44 -0.41,-0.66 -0.8,-0.66 -0.37,0 -0.65,0.12 -0.83,0.35 -0.18,0.23 -0.31,0.49 -0.38,0.77 -0.07,0.28 -0.11,0.52 -0.12,0.71 -0.04,0.46 -0.18,0.78 -0.4,0.97 -0.22,0.19 -0.52,0.28 -0.89,0.28 -0.38,0 -0.66,-0.08 -0.82,-0.24 -0.16,-0.16 -0.24,-0.36 -0.24,-0.6 0,-0.36 0.16,-0.69 0.48,-1.01 0.32,-0.32 0.72,-0.6 1.21,-0.85 0.49,-0.25 0.99,-0.44 1.52,-0.58 0.53,-0.14 0.99,-0.21 1.39,-0.21 0.61,0 1.12,0.19 1.55,0.58 0.43,0.39 0.64,1.02 0.64,1.89l0 3.94c0,0.43 0.08,0.76 0.23,1 0.16,0.24 0.37,0.36 0.65,0.36 0.21,0 0.42,-0.05 0.64,-0.16 0.06,-0.03 0.11,-0 0.14,0.08 0.04,0.08 0.02,0.14 -0.06,0.17l-2.29 1.09zm-4.26 0.02c-0.65,0 -1.14,-0.14 -1.45,-0.43 -0.32,-0.29 -0.48,-0.68 -0.48,-1.17 0,-0.49 0.13,-0.87 0.4,-1.13 0.27,-0.26 0.61,-0.47 1.04,-0.62 0.43,-0.16 0.87,-0.32 1.33,-0.48l2.22 -0.82 0.09 0.33 -1.26 0.58c-0.12,0.04 -0.29,0.12 -0.51,0.21 -0.22,0.1 -0.42,0.24 -0.6,0.42 -0.18,0.19 -0.27,0.45 -0.27,0.79 0,0.39 0.13,0.67 0.38,0.86 0.25,0.19 0.5,0.28 0.75,0.28 0.12,0 0.23,-0.01 0.34,-0.04 0.11,-0.03 0.24,-0.1 0.39,-0.2l1.11 -0.76 0.02 0.36 -1.55 1.11c-0.33,0.25 -0.64,0.43 -0.93,0.55 -0.3,0.11 -0.64,0.17 -1.02,0.17zm13.36 -0.16c-0.04,0 -0.07,-0.04 -0.07,-0.13 0,-0.09 0.02,-0.13 0.07,-0.13 0.46,0 0.77,-0.11 0.93,-0.32 0.16,-0.22 0.24,-0.62 0.24,-1.21l0 -3.21c0,-0.8 -0.14,-1.4 -0.43,-1.78 -0.29,-0.39 -0.74,-0.58 -1.36,-0.58 -0.44,0 -0.9,0.11 -1.36,0.33 -0.47,0.22 -0.84,0.53 -1.12,0.91l-0.11 -0.27c0.52,-0.74 1.1,-1.34 1.75,-1.79 0.65,-0.45 1.36,-0.68 2.13,-0.68 0.83,0 1.47,0.26 1.92,0.78 0.45,0.52 0.68,1.19 0.68,2.01l0 4.28c0,0.59 0.08,1 0.26,1.21 0.17,0.22 0.48,0.32 0.94,0.32 0.04,0 0.07,0.04 0.07,0.13 0,0.09 -0.02,0.13 -0.07,0.13 -0.3,0 -0.64,-0.01 -1.02,-0.02 -0.38,-0.01 -0.79,-0.02 -1.22,-0.02 -0.41,0 -0.81,0.01 -1.2,0.02 -0.38,0.01 -0.72,0.02 -1.02,0.02zm-5.97 0c-0.04,0 -0.07,-0.04 -0.07,-0.13 0,-0.09 0.02,-0.13 0.07,-0.13 0.46,0 0.77,-0.11 0.93,-0.32 0.16,-0.22 0.24,-0.62 0.24,-1.21l0 -4.19c0,-0.46 -0.05,-0.8 -0.16,-1.01 -0.1,-0.22 -0.28,-0.32 -0.53,-0.32 -0.13,0 -0.29,0.03 -0.47,0.08 -0.18,0.05 -0.38,0.13 -0.6,0.23 -0.06,0.03 -0.1,0 -0.13,-0.09 -0.03,-0.09 -0.03,-0.14 0,-0.16l3.08 -1.52c0.09,-0.03 0.14,-0.04 0.16,-0.04 0.16,0 0.33,0.18 0.49,0.53 0.16,0.36 0.24,0.87 0.24,1.54l0 4.95c0,0.59 0.08,1 0.26,1.21 0.17,0.22 0.48,0.32 0.94,0.32 0.04,0 0.07,0.04 0.07,0.13 0,0.09 -0.02,0.13 -0.07,0.13 -0.3,0 -0.64,-0.01 -1.02,-0.02 -0.38,-0.01 -0.79,-0.02 -1.22,-0.02 -0.41,0 -0.81,0.01 -1.2,0.02 -0.38,0.01 -0.72,0.02 -1.02,0.02zm11.67 0c-0.04,0 -0.07,-0.04 -0.07,-0.13 0,-0.09 0.02,-0.13 0.07,-0.13 0.46,0 0.77,-0.11 0.93,-0.32 0.16,-0.22 0.24,-0.62 0.24,-1.21l0 -3.99c0,-0.49 -0.05,-0.85 -0.14,-1.08 -0.1,-0.23 -0.27,-0.35 -0.52,-0.35 -0.1,0 -0.23,0.02 -0.37,0.07 -0.14,0.04 -0.29,0.1 -0.45,0.18 -0.06,0.01 -0.11,-0.02 -0.14,-0.11 -0.04,-0.09 -0.03,-0.14 0.01,-0.16l3.35 -1.56c0.03,-0.01 0.05,-0.02 0.07,-0.02 0.07,0 0.15,0.04 0.22,0.11 0.07,0.07 0.11,0.14 0.11,0.2 0,0.18 -0.01,0.48 -0.02,0.89 -0.01,0.42 -0.02,1.01 -0.02,1.78l0 4.03c0,0.59 0.08,1 0.25,1.21 0.17,0.22 0.48,0.32 0.94,0.32 0.04,0 0.07,0.04 0.07,0.13 0,0.09 -0.02,0.13 -0.07,0.13 -0.3,0 -0.64,-0.01 -1.02,-0.02 -0.38,-0.01 -0.79,-0.02 -1.22,-0.02 -0.41,0 -0.81,0.01 -1.2,0.02 -0.38,0.01 -0.73,0.02 -1.02,0.02zm2.13 -11.03c-0.41,0 -0.74,-0.12 -0.99,-0.36 -0.24,-0.24 -0.37,-0.57 -0.37,-1 0,-0.39 0.12,-0.69 0.37,-0.92 0.24,-0.23 0.57,-0.35 0.99,-0.35 0.41,0 0.73,0.12 0.95,0.35 0.22,0.23 0.33,0.54 0.33,0.92 0,0.91 -0.43,1.36 -1.29,1.36zm8.1 11.32c-0.93,0 -1.74,-0.22 -2.42,-0.65 -0.68,-0.43 -1.21,-1.01 -1.58,-1.73 -0.37,-0.72 -0.55,-1.5 -0.55,-2.33 0,-0.77 0.15,-1.44 0.44,-2.01 0.3,-0.56 0.69,-1.03 1.18,-1.39 0.49,-0.36 1.02,-0.64 1.6,-0.81 0.58,-0.18 1.15,-0.27 1.71,-0.27 0.95,0 1.76,0.22 2.43,0.67 0.67,0.45 1.19,1.02 1.54,1.72 0.36,0.7 0.53,1.44 0.53,2.23 0,0.91 -0.23,1.7 -0.68,2.4 -0.45,0.69 -1.05,1.23 -1.79,1.6 -0.74,0.38 -1.55,0.57 -2.42,0.57zm0.67 -0.47c0.59,0 1.04,-0.29 1.33,-0.87 0.3,-0.58 0.44,-1.4 0.44,-2.45 0,-1.08 -0.14,-1.99 -0.41,-2.72 -0.27,-0.73 -0.63,-1.28 -1.05,-1.65 -0.43,-0.37 -0.88,-0.56 -1.35,-0.56 -0.58,0 -1.02,0.26 -1.32,0.78 -0.3,0.52 -0.45,1.32 -0.45,2.41 0,1.01 0.13,1.9 0.38,2.66 0.25,0.76 0.59,1.36 1.02,1.77 0.43,0.42 0.9,0.62 1.42,0.62zm11.76 0.18c-0.04,0 -0.07,-0.04 -0.07,-0.13 0,-0.09 0.02,-0.13 0.07,-0.13 0.46,0 0.77,-0.11 0.93,-0.32 0.16,-0.22 0.24,-0.62 0.24,-1.21l0 -3.21c0,-0.8 -0.14,-1.4 -0.43,-1.78 -0.29,-0.39 -0.74,-0.58 -1.36,-0.58 -0.44,0 -0.9,0.11 -1.36,0.33 -0.47,0.22 -0.84,0.53 -1.12,0.91l-0.11 -0.27c0.52,-0.74 1.1,-1.34 1.75,-1.79 0.65,-0.45 1.36,-0.68 2.13,-0.68 0.83,0 1.47,0.26 1.92,0.78 0.45,0.52 0.68,1.19 0.68,2.01l0 4.28c0,0.59 0.08,1 0.26,1.21 0.17,0.22 0.48,0.32 0.94,0.32 0.04,0 0.07,0.04 0.07,0.13 0,0.09 -0.02,0.13 -0.07,0.13 -0.3,0 -0.64,-0.01 -1.02,-0.02 -0.38,-0.01 -0.79,-0.02 -1.22,-0.02 -0.41,0 -0.81,0.01 -1.2,0.02 -0.38,0.01 -0.72,0.02 -1.02,0.02zm-5.97 0c-0.04,0 -0.07,-0.04 -0.07,-0.13 0,-0.09 0.02,-0.13 0.07,-0.13 0.46,0 0.77,-0.11 0.93,-0.32 0.16,-0.22 0.24,-0.62 0.24,-1.21l0 -4.19c0,-0.46 -0.05,-0.8 -0.16,-1.01 -0.1,-0.22 -0.28,-0.32 -0.53,-0.32 -0.13,0 -0.29,0.03 -0.47,0.08 -0.18,0.05 -0.38,0.13 -0.6,0.23 -0.06,0.03 -0.1,0 -0.13,-0.09 -0.03,-0.09 -0.03,-0.14 0,-0.16l3.08 -1.52c0.09,-0.03 0.14,-0.04 0.16,-0.04 0.16,0 0.33,0.18 0.49,0.53 0.16,0.36 0.24,0.87 0.24,1.54l0 4.95c0,0.59 0.08,1 0.26,1.21 0.17,0.22 0.48,0.32 0.94,0.32 0.04,0 0.07,0.04 0.07,0.13 0,0.09 -0.02,0.13 -0.07,0.13 -0.3,0 -0.64,-0.01 -1.02,-0.02 -0.38,-0.01 -0.79,-0.02 -1.22,-0.02 -0.41,0 -0.81,0.01 -1.2,0.02 -0.38,0.01 -0.72,0.02 -1.02,0.02z"/>
  </g>
 </g>
</svg>
